<svg width="26" height="26" viewBox="0 0 26 26" fill="none" xmlns="http://www.w3.org/2000/svg">
<path d="M25.7471 10.4539H24.7V10.4H13V15.6H20.347C19.2751 18.627 16.3949 20.8 13 20.8C8.69245 20.8 5.2 17.3075 5.2 13C5.2 8.69245 8.69245 5.2 13 5.2C14.9883 5.2 16.7973 5.9501 18.1747 7.17535L21.8517 3.4983C19.5299 1.33445 16.4242 0 13 0C5.82075 0 0 5.82075 0 13C0 20.1792 5.82075 26 13 26C20.1792 26 26 20.1792 26 13C26 12.1283 25.9103 11.2775 25.7471 10.4539Z" fill="#FFC107"/>
<path d="M1.4989 6.94915L5.77005 10.0815C6.92575 7.2202 9.72465 5.2 13 5.2C14.9883 5.2 16.7973 5.9501 18.1746 7.17535L21.8517 3.4983C19.5299 1.33445 16.4242 0 13 0C8.0067 0 3.6764 2.81905 1.4989 6.94915Z" fill="#FF3D00"/>
<path d="M13 25.9997C16.3579 25.9997 19.409 24.7146 21.7159 22.6249L17.6924 19.2202C16.3433 20.2461 14.6949 20.801 13 20.7997C9.61871 20.7997 6.74766 18.6436 5.66606 15.6348L1.42676 18.901C3.57826 23.1111 7.94756 25.9997 13 25.9997Z" fill="#4CAF50"/>
<path d="M25.7471 10.4543H24.7V10.4004H13V15.6004H20.347C19.8342 17.0411 18.9107 18.3 17.6904 19.2215L17.6923 19.2202L21.7158 22.6249C21.4311 22.8836 26 19.5004 26 13.0004C26 12.1287 25.9103 11.2779 25.7471 10.4543Z" fill="#1976D2"/>
</svg>
