<svg width="203" height="149" viewBox="0 0 203 149" fill="none" xmlns="http://www.w3.org/2000/svg">
<path d="M101.421 2.62808C116.364 2.57077 135.964 38.3454 138.843 91.3267L178.386 8.30159C178.673 7.71418 182.125 0.894514 189.217 0.0778732C194.733 -0.552516 200.206 2.68539 203 8.30159C181.08 54.1194 159.159 99.9373 137.253 145.755C134.631 94.8225 115.806 60.409 101.407 60.4233C87.0798 60.4376 68.512 94.536 65.5749 144.623L0 8.30159C2.39262 3.30145 7.06324 0.135181 12.1637 0.0778732C17.3787 0.00623811 22.2069 3.20116 24.6569 8.30159C37.9094 35.7092 51.1619 63.1168 64.4001 90.5244C67.3228 38.2737 86.5497 2.68539 101.421 2.62808Z" fill="#0085FF"/>
<path d="M101.478 148.6C111.393 148.6 119.43 131.66 119.43 110.763C119.43 89.8654 111.393 72.9248 101.478 72.9248C91.5639 72.9248 83.5266 89.8654 83.5266 110.763C83.5266 131.66 91.5639 148.6 101.478 148.6Z" fill="#0085FF"/>
</svg>
