<svg width="25" height="21" viewBox="0 0 25 21" fill="none" xmlns="http://www.w3.org/2000/svg">
<path d="M25 2.39006C24.0798 2.80832 23.088 3.08317 22.0602 3.21463C23.1119 2.58126 23.9245 1.57744 24.3069 0.370459C23.315 0.967973 22.2156 1.38623 21.0564 1.62524C20.1123 0.597515 18.7859 0 17.2801 0C14.4718 0 12.1773 2.29446 12.1773 5.12667C12.1773 5.53298 12.2251 5.92734 12.3088 6.2978C8.05449 6.0827 4.26625 4.0392 1.74474 0.944073C1.30258 1.69694 1.05163 2.58126 1.05163 3.51339C1.05163 5.29398 1.9479 6.87142 3.33413 7.76769C2.48566 7.76769 1.69694 7.52868 1.00382 7.17017V7.20602C1.00382 9.69168 2.77247 11.771 5.11472 12.2371C4.36272 12.4429 3.57325 12.4715 2.80832 12.3207C3.1329 13.3395 3.76857 14.2309 4.62598 14.8697C5.48339 15.5084 6.51942 15.8624 7.58843 15.8819C5.77633 17.3165 3.53011 18.0919 1.21893 18.0808C0.81262 18.0808 0.40631 18.0569 0 18.0091C2.27055 19.467 4.97132 20.3155 7.86329 20.3155C17.2801 20.3155 22.4546 12.5 22.4546 5.72419C22.4546 5.49713 22.4546 5.28203 22.4426 5.05497C23.4465 4.33795 24.3069 3.42973 25 2.39006Z" fill="#64B5FF"/>
</svg>
